<svg viewBox="-2 -2 420 206" xmlns="http://www.w3.org/2000/svg">
    <!-- p -->
    <path d="M129.6,23.9 Q129.6,17.9 123.6,18.6 L47.7,28.2 Q41.7,28.9 37.7,33.4 L12.9,60.8 Q8.9,65.3 8.5,71.3 L1.3,193.8 Q0.9,199.8 6.8,198.9 L45.1,192.7 Q51.0,191.8 51.2,185.8 L52.0,151.0 Q52.2,145.0 58.2,144.9 L98.0,143.9 Q104.0,143.8 107.7,139.0 L125.9,115.3 Q129.6,110.5 129.6,104.5 Z
             M71.0,49.7 Q76.9,48.5 77.4,54.5 L82.3,114.7 Q82.8,120.7 77.1,122.6 L59.3,128.4 Q53.6,130.3 53.5,124.3 L52.1,59.8 Q52.0,53.8 57.9,52.6 Z"
          fill="#ffffff" fill-rule="evenodd"/>
    <!-- i -->
    <path d="M160.0,27.8 Q154.1,26.8 153.8,32.8 L148.8,136.9 Q148.5,142.9 154.5,143.0 L188.4,143.7 Q194.4,143.8 194.0,137.8 L187.8,38.2 Q187.4,32.2 181.5,31.2 Z"
          fill="#ffffff"/>
    <!-- l -->
    <path d="M263.5,6.0 Q263.6,0.0 257.7,0.9 L219.9,6.8 Q214.0,7.7 214.2,13.7 L219.1,137.8 Q219.3,143.8 225.3,143.7 L284.9,142.5 Q290.9,142.4 288.7,136.8 L285.2,128.4 Q283.0,122.8 277.0,123.3 L267.5,124.0 Q261.5,124.5 261.6,118.5 Z"
          fill="#ffffff"/>
    <!-- o -->
    <path d="M413.1,15.6 Q413.1,9.6 407.1,10.4 L315.1,22.0 Q309.1,22.8 305.8,27.8 L295.6,43.0 Q292.3,48.0 292.9,54.0 L301.0,137.6 Q301.6,143.6 307.6,143.6 L364.4,143.8 Q370.4,143.8 374.7,139.6 L409.5,105.1 Q413.8,100.9 413.8,94.9 Z
             M358.4,40.8 Q364.3,39.6 364.5,45.6 L366.2,114.7 Q366.4,120.7 360.5,122.0 L347.6,125.0 Q341.7,126.3 341.3,120.3 L336.1,51.5 Q335.7,45.5 341.6,44.3 Z"
          fill="#ffffff" fill-rule="evenodd"/>
</svg>
