# PILO 云梦枕 — Low Poly Model (v7)
# 32 vertices, 60 faces
# Units: cm, Y-up

mtllib pilo.mtl
usemtl pilo_fabric

v -21.0000 9.0000 -18.0000
v -30.0000 5.0000 -14.0000
v -27.0000 8.0000 -1.0000
v -32.0000 11.0000 11.0000
v -31.0000 8.0000 18.0000
v -12.0000 11.0000 20.0000
v 12.0000 11.0000 20.0000
v 31.0000 8.0000 18.0000
v 32.0000 11.0000 11.0000
v 27.0000 8.0000 -1.0000
v 30.0000 5.0000 -14.0000
v 21.0000 9.0000 -18.0000
v -4.0000 7.0000 -15.0000
v 4.0000 7.0000 -15.0000
v -10.0000 8.0000 -0.0000
v 10.0000 8.0000 -0.0000
v -13.0000 13.0000 12.0000
v 13.0000 13.0000 12.0000
v -6.0000 10.0000 11.0000
v 6.0000 10.0000 11.0000
v 0.0000 5.0000 -0.0000
v 0.0000 7.0000 16.0000
v -28.0000 0.0000 -14.0000
v 0.0000 0.0000 -17.0000
v 28.0000 0.0000 -14.0000
v 33.0000 0.0000 -0.0000
v 29.0000 0.0000 13.0000
v 10.0000 0.0000 18.0000
v -10.0000 0.0000 18.0000
v -29.0000 0.0000 13.0000
v -33.0000 0.0000 -0.0000
v 0.0000 0.0000 -0.0000

vn 0.000000 0.991228 0.132164
vn 0.000000 0.910366 -0.413803
vn 0.000000 0.857493 0.514496
vn -0.119986 0.992609 -0.018180
vn 0.442042 0.890991 -0.103604
vn 0.003384 0.998338 0.057531
vn -0.286974 0.956579 0.051018
vn -0.022339 0.924817 -0.379756
vn 0.086296 0.957470 -0.275324
vn 0.114473 0.960304 0.254385
vn 0.184181 0.893620 0.409292
vn -0.276803 0.922677 -0.268415
vn -0.342379 0.894604 -0.287157
vn -0.352865 0.926270 0.132324
vn -0.408752 0.896111 0.172934
vn 0.119986 0.992609 -0.018180
vn -0.442042 0.890991 -0.103604
vn -0.003384 0.998338 0.057531
vn 0.286974 0.956579 0.051018
vn 0.022339 0.924817 -0.379756
vn -0.086296 0.957470 -0.275324
vn -0.114473 0.960304 0.254385
vn -0.184181 0.893620 0.409292
vn 0.276803 0.922677 -0.268415
vn 0.342379 0.894604 -0.287157
vn 0.352865 0.926270 0.132324
vn 0.408752 0.896111 0.172934
vn 0.203704 0.374815 -0.904444
vn 0.000000 0.274721 -0.961524
vn -0.203704 0.374815 -0.904444
vn -0.100266 -0.337933 -0.935814
vn -0.349588 -0.139835 -0.926409
vn -0.881288 -0.352515 -0.314746
vn -0.796514 0.602968 0.044664
vn -0.745098 0.504259 -0.436522
vn -0.965651 -0.258414 0.027201
vn -0.935901 -0.202888 0.287969
vn -0.211617 -0.555493 0.804143
vn -0.072844 -0.191216 0.978841
vn 0.276694 -0.122975 0.953057
vn 0.000000 0.274721 0.961524
vn -0.276694 -0.122975 0.953057
vn 0.072844 -0.191216 0.978841
vn 0.211617 -0.555493 0.804143
vn 0.965651 -0.258414 0.027201
vn 0.935901 -0.202888 0.287969
vn 0.745098 0.504259 -0.436522
vn 0.796514 0.602968 0.044664
vn 0.881288 -0.352515 -0.314746
vn 0.349588 -0.139835 -0.926409
vn 0.100266 -0.337933 -0.935814
vn 0.000000 -1.000000 -0.000000
vn 0.000000 -1.000000 -0.000000
vn 0.000000 -1.000000 -0.000000
vn 0.000000 -1.000000 -0.000000
vn 0.000000 -1.000000 -0.000000
vn 0.000000 -1.000000 0.000000
vn 0.000000 -1.000000 -0.000000
vn -0.000000 -1.000000 -0.000000
vn 0.000000 -1.000000 -0.000000

f 13//1 21//1 14//1
f 21//2 19//2 20//2
f 20//3 19//3 22//3
f 12//4 14//4 16//4
f 12//5 10//5 11//5
f 12//6 16//6 10//6
f 14//7 21//7 16//7
f 10//8 16//8 18//8
f 10//9 18//9 9//9
f 9//10 18//10 7//10
f 9//11 7//11 8//11
f 16//12 21//12 20//12
f 16//13 20//13 18//13
f 20//14 22//14 7//14
f 20//15 7//15 18//15
f 1//16 15//16 13//16
f 1//17 2//17 3//17
f 1//18 3//18 15//18
f 13//19 15//19 21//19
f 3//20 17//20 15//20
f 3//21 4//21 17//21
f 4//22 6//22 17//22
f 4//23 5//23 6//23
f 15//24 19//24 21//24
f 15//25 17//25 19//25
f 19//26 6//26 22//26
f 19//27 17//27 6//27
f 24//28 1//28 13//28
f 24//29 13//29 14//29
f 24//30 14//30 12//30
f 24//31 23//31 1//31
f 23//32 2//32 1//32
f 23//33 31//33 2//33
f 31//34 3//34 2//34
f 31//35 4//35 3//35
f 4//36 30//36 5//36
f 4//37 31//37 30//37
f 30//38 29//38 5//38
f 29//39 6//39 5//39
f 29//40 22//40 6//40
f 29//41 28//41 22//41
f 28//42 7//42 22//42
f 28//43 8//43 7//43
f 28//44 27//44 8//44
f 9//45 8//45 27//45
f 9//46 27//46 26//46
f 26//47 10//47 9//47
f 26//48 11//48 10//48
f 26//49 25//49 11//49
f 25//50 12//50 11//50
f 25//51 24//51 12//51
f 32//52 23//52 24//52
f 32//53 24//53 25//53
f 32//54 25//54 26//54
f 32//55 26//55 27//55
f 32//56 27//56 28//56
f 32//57 28//57 29//57
f 32//58 29//58 30//58
f 32//59 30//59 31//59
f 32//60 31//60 23//60
