ply
format ascii 1.0
element vertex 180
property float x
property float y
property float z
property float nx
property float ny
property float nz
property uchar red
property uchar green
property uchar blue
element face 60
property list uchar int vertex_indices
end_header
-4.0000 7.0000 -15.0000 0.0000 0.9912 0.1322 46 93 173
0.0000 5.0000 -0.0000 0.0000 0.9912 0.1322 46 93 173
4.0000 7.0000 -15.0000 0.0000 0.9912 0.1322 46 93 173
0.0000 5.0000 -0.0000 0.0000 0.9104 -0.4138 44 91 171
-6.0000 10.0000 11.0000 0.0000 0.9104 -0.4138 44 91 171
6.0000 10.0000 11.0000 0.0000 0.9104 -0.4138 44 91 171
6.0000 10.0000 11.0000 0.0000 0.8575 0.5145 39 86 166
-6.0000 10.0000 11.0000 0.0000 0.8575 0.5145 39 86 166
0.0000 7.0000 16.0000 0.0000 0.8575 0.5145 39 86 166
21.0000 9.0000 -18.0000 -0.1200 0.9926 -0.0182 44 91 171
4.0000 7.0000 -15.0000 -0.1200 0.9926 -0.0182 44 91 171
10.0000 8.0000 -0.0000 -0.1200 0.9926 -0.0182 44 91 171
21.0000 9.0000 -18.0000 0.4420 0.8910 -0.1036 36 83 163
27.0000 8.0000 -1.0000 0.4420 0.8910 -0.1036 36 83 163
30.0000 5.0000 -14.0000 0.4420 0.8910 -0.1036 36 83 163
21.0000 9.0000 -18.0000 0.0034 0.9983 0.0575 43 90 170
10.0000 8.0000 -0.0000 0.0034 0.9983 0.0575 43 90 170
27.0000 8.0000 -1.0000 0.0034 0.9983 0.0575 43 90 170
4.0000 7.0000 -15.0000 -0.2870 0.9566 0.0510 38 85 165
0.0000 5.0000 -0.0000 -0.2870 0.9566 0.0510 38 85 165
10.0000 8.0000 -0.0000 -0.2870 0.9566 0.0510 38 85 165
27.0000 8.0000 -1.0000 -0.0223 0.9248 -0.3798 40 87 167
10.0000 8.0000 -0.0000 -0.0223 0.9248 -0.3798 40 87 167
13.0000 13.0000 12.0000 -0.0223 0.9248 -0.3798 40 87 167
27.0000 8.0000 -1.0000 0.0863 0.9575 -0.2753 30 77 157
13.0000 13.0000 12.0000 0.0863 0.9575 -0.2753 30 77 157
32.0000 11.0000 11.0000 0.0863 0.9575 -0.2753 30 77 157
32.0000 11.0000 11.0000 0.1145 0.9603 0.2544 45 92 172
13.0000 13.0000 12.0000 0.1145 0.9603 0.2544 45 92 172
12.0000 11.0000 20.0000 0.1145 0.9603 0.2544 45 92 172
32.0000 11.0000 11.0000 0.1842 0.8936 0.4093 40 87 167
12.0000 11.0000 20.0000 0.1842 0.8936 0.4093 40 87 167
31.0000 8.0000 18.0000 0.1842 0.8936 0.4093 40 87 167
10.0000 8.0000 -0.0000 -0.2768 0.9227 -0.2684 47 94 174
0.0000 5.0000 -0.0000 -0.2768 0.9227 -0.2684 47 94 174
6.0000 10.0000 11.0000 -0.2768 0.9227 -0.2684 47 94 174
10.0000 8.0000 -0.0000 -0.3424 0.8946 -0.2872 39 86 166
6.0000 10.0000 11.0000 -0.3424 0.8946 -0.2872 39 86 166
13.0000 13.0000 12.0000 -0.3424 0.8946 -0.2872 39 86 166
6.0000 10.0000 11.0000 -0.3529 0.9263 0.1323 41 88 168
0.0000 7.0000 16.0000 -0.3529 0.9263 0.1323 41 88 168
12.0000 11.0000 20.0000 -0.3529 0.9263 0.1323 41 88 168
6.0000 10.0000 11.0000 -0.4088 0.8961 0.1729 51 98 178
12.0000 11.0000 20.0000 -0.4088 0.8961 0.1729 51 98 178
13.0000 13.0000 12.0000 -0.4088 0.8961 0.1729 51 98 178
-21.0000 9.0000 -18.0000 0.1200 0.9926 -0.0182 33 80 160
-10.0000 8.0000 -0.0000 0.1200 0.9926 -0.0182 33 80 160
-4.0000 7.0000 -15.0000 0.1200 0.9926 -0.0182 33 80 160
-21.0000 9.0000 -18.0000 -0.4420 0.8910 -0.1036 41 88 168
-30.0000 5.0000 -14.0000 -0.4420 0.8910 -0.1036 41 88 168
-27.0000 8.0000 -1.0000 -0.4420 0.8910 -0.1036 41 88 168
-21.0000 9.0000 -18.0000 -0.0034 0.9983 0.0575 40 87 167
-27.0000 8.0000 -1.0000 -0.0034 0.9983 0.0575 40 87 167
-10.0000 8.0000 -0.0000 -0.0034 0.9983 0.0575 40 87 167
-4.0000 7.0000 -15.0000 0.2870 0.9566 0.0510 30 77 157
-10.0000 8.0000 -0.0000 0.2870 0.9566 0.0510 30 77 157
0.0000 5.0000 -0.0000 0.2870 0.9566 0.0510 30 77 157
-27.0000 8.0000 -1.0000 0.0223 0.9248 -0.3798 38 85 165
-13.0000 13.0000 12.0000 0.0223 0.9248 -0.3798 38 85 165
-10.0000 8.0000 -0.0000 0.0223 0.9248 -0.3798 38 85 165
-27.0000 8.0000 -1.0000 -0.0863 0.9575 -0.2753 34 81 161
-32.0000 11.0000 11.0000 -0.0863 0.9575 -0.2753 34 81 161
-13.0000 13.0000 12.0000 -0.0863 0.9575 -0.2753 34 81 161
-32.0000 11.0000 11.0000 -0.1145 0.9603 0.2544 37 84 164
-12.0000 11.0000 20.0000 -0.1145 0.9603 0.2544 37 84 164
-13.0000 13.0000 12.0000 -0.1145 0.9603 0.2544 37 84 164
-32.0000 11.0000 11.0000 -0.1842 0.8936 0.4093 39 86 166
-31.0000 8.0000 18.0000 -0.1842 0.8936 0.4093 39 86 166
-12.0000 11.0000 20.0000 -0.1842 0.8936 0.4093 39 86 166
-10.0000 8.0000 -0.0000 0.2768 0.9227 -0.2684 32 79 159
-6.0000 10.0000 11.0000 0.2768 0.9227 -0.2684 32 79 159
0.0000 5.0000 -0.0000 0.2768 0.9227 -0.2684 32 79 159
-10.0000 8.0000 -0.0000 0.3424 0.8946 -0.2872 41 88 168
-13.0000 13.0000 12.0000 0.3424 0.8946 -0.2872 41 88 168
-6.0000 10.0000 11.0000 0.3424 0.8946 -0.2872 41 88 168
-6.0000 10.0000 11.0000 0.3529 0.9263 0.1323 36 83 163
-12.0000 11.0000 20.0000 0.3529 0.9263 0.1323 36 83 163
0.0000 7.0000 16.0000 0.3529 0.9263 0.1323 36 83 163
-6.0000 10.0000 11.0000 0.4088 0.8961 0.1729 38 85 165
-13.0000 13.0000 12.0000 0.4088 0.8961 0.1729 38 85 165
-12.0000 11.0000 20.0000 0.4088 0.8961 0.1729 38 85 165
0.0000 0.0000 -17.0000 0.2037 0.3748 -0.9044 35 82 162
-21.0000 9.0000 -18.0000 0.2037 0.3748 -0.9044 35 82 162
-4.0000 7.0000 -15.0000 0.2037 0.3748 -0.9044 35 82 162
0.0000 0.0000 -17.0000 0.0000 0.2747 -0.9615 43 90 170
-4.0000 7.0000 -15.0000 0.0000 0.2747 -0.9615 43 90 170
4.0000 7.0000 -15.0000 0.0000 0.2747 -0.9615 43 90 170
0.0000 0.0000 -17.0000 -0.2037 0.3748 -0.9044 36 83 163
4.0000 7.0000 -15.0000 -0.2037 0.3748 -0.9044 36 83 163
21.0000 9.0000 -18.0000 -0.2037 0.3748 -0.9044 36 83 163
0.0000 0.0000 -17.0000 -0.1003 -0.3379 -0.9358 38 85 165
-28.0000 0.0000 -14.0000 -0.1003 -0.3379 -0.9358 38 85 165
-21.0000 9.0000 -18.0000 -0.1003 -0.3379 -0.9358 38 85 165
-28.0000 0.0000 -14.0000 -0.3496 -0.1398 -0.9264 32 79 159
-30.0000 5.0000 -14.0000 -0.3496 -0.1398 -0.9264 32 79 159
-21.0000 9.0000 -18.0000 -0.3496 -0.1398 -0.9264 32 79 159
-28.0000 0.0000 -14.0000 -0.8813 -0.3525 -0.3147 39 86 166
-33.0000 0.0000 -0.0000 -0.8813 -0.3525 -0.3147 39 86 166
-30.0000 5.0000 -14.0000 -0.8813 -0.3525 -0.3147 39 86 166
-33.0000 0.0000 -0.0000 -0.7965 0.6030 0.0447 42 89 169
-27.0000 8.0000 -1.0000 -0.7965 0.6030 0.0447 42 89 169
-30.0000 5.0000 -14.0000 -0.7965 0.6030 0.0447 42 89 169
-33.0000 0.0000 -0.0000 -0.7451 0.5043 -0.4365 44 91 171
-32.0000 11.0000 11.0000 -0.7451 0.5043 -0.4365 44 91 171
-27.0000 8.0000 -1.0000 -0.7451 0.5043 -0.4365 44 91 171
-32.0000 11.0000 11.0000 -0.9657 -0.2584 0.0272 38 85 165
-29.0000 0.0000 13.0000 -0.9657 -0.2584 0.0272 38 85 165
-31.0000 8.0000 18.0000 -0.9657 -0.2584 0.0272 38 85 165
-32.0000 11.0000 11.0000 -0.9359 -0.2029 0.2880 31 78 158
-33.0000 0.0000 -0.0000 -0.9359 -0.2029 0.2880 31 78 158
-29.0000 0.0000 13.0000 -0.9359 -0.2029 0.2880 31 78 158
-29.0000 0.0000 13.0000 -0.2116 -0.5555 0.8041 45 92 172
-10.0000 0.0000 18.0000 -0.2116 -0.5555 0.8041 45 92 172
-31.0000 8.0000 18.0000 -0.2116 -0.5555 0.8041 45 92 172
-10.0000 0.0000 18.0000 -0.0728 -0.1912 0.9788 36 83 163
-12.0000 11.0000 20.0000 -0.0728 -0.1912 0.9788 36 83 163
-31.0000 8.0000 18.0000 -0.0728 -0.1912 0.9788 36 83 163
-10.0000 0.0000 18.0000 0.2767 -0.1230 0.9531 38 85 165
0.0000 7.0000 16.0000 0.2767 -0.1230 0.9531 38 85 165
-12.0000 11.0000 20.0000 0.2767 -0.1230 0.9531 38 85 165
-10.0000 0.0000 18.0000 0.0000 0.2747 0.9615 30 77 157
10.0000 0.0000 18.0000 0.0000 0.2747 0.9615 30 77 157
0.0000 7.0000 16.0000 0.0000 0.2747 0.9615 30 77 157
10.0000 0.0000 18.0000 -0.2767 -0.1230 0.9531 34 81 161
12.0000 11.0000 20.0000 -0.2767 -0.1230 0.9531 34 81 161
0.0000 7.0000 16.0000 -0.2767 -0.1230 0.9531 34 81 161
10.0000 0.0000 18.0000 0.0728 -0.1912 0.9788 39 86 166
31.0000 8.0000 18.0000 0.0728 -0.1912 0.9788 39 86 166
12.0000 11.0000 20.0000 0.0728 -0.1912 0.9788 39 86 166
10.0000 0.0000 18.0000 0.2116 -0.5555 0.8041 44 91 171
29.0000 0.0000 13.0000 0.2116 -0.5555 0.8041 44 91 171
31.0000 8.0000 18.0000 0.2116 -0.5555 0.8041 44 91 171
32.0000 11.0000 11.0000 0.9657 -0.2584 0.0272 28 75 155
31.0000 8.0000 18.0000 0.9657 -0.2584 0.0272 28 75 155
29.0000 0.0000 13.0000 0.9657 -0.2584 0.0272 28 75 155
32.0000 11.0000 11.0000 0.9359 -0.2029 0.2880 30 77 157
29.0000 0.0000 13.0000 0.9359 -0.2029 0.2880 30 77 157
33.0000 0.0000 -0.0000 0.9359 -0.2029 0.2880 30 77 157
33.0000 0.0000 -0.0000 0.7451 0.5043 -0.4365 47 94 174
27.0000 8.0000 -1.0000 0.7451 0.5043 -0.4365 47 94 174
32.0000 11.0000 11.0000 0.7451 0.5043 -0.4365 47 94 174
33.0000 0.0000 -0.0000 0.7965 0.6030 0.0447 38 85 165
30.0000 5.0000 -14.0000 0.7965 0.6030 0.0447 38 85 165
27.0000 8.0000 -1.0000 0.7965 0.6030 0.0447 38 85 165
33.0000 0.0000 -0.0000 0.8813 -0.3525 -0.3147 33 80 160
28.0000 0.0000 -14.0000 0.8813 -0.3525 -0.3147 33 80 160
30.0000 5.0000 -14.0000 0.8813 -0.3525 -0.3147 33 80 160
28.0000 0.0000 -14.0000 0.3496 -0.1398 -0.9264 38 85 165
21.0000 9.0000 -18.0000 0.3496 -0.1398 -0.9264 38 85 165
30.0000 5.0000 -14.0000 0.3496 -0.1398 -0.9264 38 85 165
28.0000 0.0000 -14.0000 0.1003 -0.3379 -0.9358 30 77 157
0.0000 0.0000 -17.0000 0.1003 -0.3379 -0.9358 30 77 157
21.0000 9.0000 -18.0000 0.1003 -0.3379 -0.9358 30 77 157
0.0000 0.0000 -0.0000 0.0000 -1.0000 -0.0000 41 88 168
-28.0000 0.0000 -14.0000 0.0000 -1.0000 -0.0000 41 88 168
0.0000 0.0000 -17.0000 0.0000 -1.0000 -0.0000 41 88 168
0.0000 0.0000 -0.0000 0.0000 -1.0000 -0.0000 38 85 165
0.0000 0.0000 -17.0000 0.0000 -1.0000 -0.0000 38 85 165
28.0000 0.0000 -14.0000 0.0000 -1.0000 -0.0000 38 85 165
0.0000 0.0000 -0.0000 0.0000 -1.0000 -0.0000 38 85 165
28.0000 0.0000 -14.0000 0.0000 -1.0000 -0.0000 38 85 165
33.0000 0.0000 -0.0000 0.0000 -1.0000 -0.0000 38 85 165
0.0000 0.0000 -0.0000 0.0000 -1.0000 -0.0000 31 78 158
33.0000 0.0000 -0.0000 0.0000 -1.0000 -0.0000 31 78 158
29.0000 0.0000 13.0000 0.0000 -1.0000 -0.0000 31 78 158
0.0000 0.0000 -0.0000 0.0000 -1.0000 -0.0000 38 85 165
29.0000 0.0000 13.0000 0.0000 -1.0000 -0.0000 38 85 165
10.0000 0.0000 18.0000 0.0000 -1.0000 -0.0000 38 85 165
0.0000 0.0000 -0.0000 0.0000 -1.0000 0.0000 32 79 159
10.0000 0.0000 18.0000 0.0000 -1.0000 0.0000 32 79 159
-10.0000 0.0000 18.0000 0.0000 -1.0000 0.0000 32 79 159
0.0000 0.0000 -0.0000 0.0000 -1.0000 -0.0000 38 85 165
-10.0000 0.0000 18.0000 0.0000 -1.0000 -0.0000 38 85 165
-29.0000 0.0000 13.0000 0.0000 -1.0000 -0.0000 38 85 165
0.0000 0.0000 -0.0000 -0.0000 -1.0000 -0.0000 39 86 166
-29.0000 0.0000 13.0000 -0.0000 -1.0000 -0.0000 39 86 166
-33.0000 0.0000 -0.0000 -0.0000 -1.0000 -0.0000 39 86 166
0.0000 0.0000 -0.0000 0.0000 -1.0000 -0.0000 32 79 159
-33.0000 0.0000 -0.0000 0.0000 -1.0000 -0.0000 32 79 159
-28.0000 0.0000 -14.0000 0.0000 -1.0000 -0.0000 32 79 159
3 0 1 2
3 3 4 5
3 6 7 8
3 9 10 11
3 12 13 14
3 15 16 17
3 18 19 20
3 21 22 23
3 24 25 26
3 27 28 29
3 30 31 32
3 33 34 35
3 36 37 38
3 39 40 41
3 42 43 44
3 45 46 47
3 48 49 50
3 51 52 53
3 54 55 56
3 57 58 59
3 60 61 62
3 63 64 65
3 66 67 68
3 69 70 71
3 72 73 74
3 75 76 77
3 78 79 80
3 81 82 83
3 84 85 86
3 87 88 89
3 90 91 92
3 93 94 95
3 96 97 98
3 99 100 101
3 102 103 104
3 105 106 107
3 108 109 110
3 111 112 113
3 114 115 116
3 117 118 119
3 120 121 122
3 123 124 125
3 126 127 128
3 129 130 131
3 132 133 134
3 135 136 137
3 138 139 140
3 141 142 143
3 144 145 146
3 147 148 149
3 150 151 152
3 153 154 155
3 156 157 158
3 159 160 161
3 162 163 164
3 165 166 167
3 168 169 170
3 171 172 173
3 174 175 176
3 177 178 179
