ply
format ascii 1.0
element vertex 180
property float x
property float y
property float z
property float nx
property float ny
property float nz
property uchar red
property uchar green
property uchar blue
element face 60
property list uchar int vertex_indices
end_header
-4.0000 7.0000 -15.0000 0.0000 0.9912 0.1322 148 151 156
0.0000 5.0000 -0.0000 0.0000 0.9912 0.1322 148 151 156
4.0000 7.0000 -15.0000 0.0000 0.9912 0.1322 148 151 156
0.0000 5.0000 -0.0000 0.0000 0.9104 -0.4138 146 149 154
-6.0000 10.0000 11.0000 0.0000 0.9104 -0.4138 146 149 154
6.0000 10.0000 11.0000 0.0000 0.9104 -0.4138 146 149 154
6.0000 10.0000 11.0000 0.0000 0.8575 0.5145 141 144 149
-6.0000 10.0000 11.0000 0.0000 0.8575 0.5145 141 144 149
0.0000 7.0000 16.0000 0.0000 0.8575 0.5145 141 144 149
21.0000 9.0000 -18.0000 -0.1200 0.9926 -0.0182 146 149 154
4.0000 7.0000 -15.0000 -0.1200 0.9926 -0.0182 146 149 154
10.0000 8.0000 -0.0000 -0.1200 0.9926 -0.0182 146 149 154
21.0000 9.0000 -18.0000 0.4420 0.8910 -0.1036 138 141 146
27.0000 8.0000 -1.0000 0.4420 0.8910 -0.1036 138 141 146
30.0000 5.0000 -14.0000 0.4420 0.8910 -0.1036 138 141 146
21.0000 9.0000 -18.0000 0.0034 0.9983 0.0575 145 148 153
10.0000 8.0000 -0.0000 0.0034 0.9983 0.0575 145 148 153
27.0000 8.0000 -1.0000 0.0034 0.9983 0.0575 145 148 153
4.0000 7.0000 -15.0000 -0.2870 0.9566 0.0510 140 143 148
0.0000 5.0000 -0.0000 -0.2870 0.9566 0.0510 140 143 148
10.0000 8.0000 -0.0000 -0.2870 0.9566 0.0510 140 143 148
27.0000 8.0000 -1.0000 -0.0223 0.9248 -0.3798 142 145 150
10.0000 8.0000 -0.0000 -0.0223 0.9248 -0.3798 142 145 150
13.0000 13.0000 12.0000 -0.0223 0.9248 -0.3798 142 145 150
27.0000 8.0000 -1.0000 0.0863 0.9575 -0.2753 132 135 140
13.0000 13.0000 12.0000 0.0863 0.9575 -0.2753 132 135 140
32.0000 11.0000 11.0000 0.0863 0.9575 -0.2753 132 135 140
32.0000 11.0000 11.0000 0.1145 0.9603 0.2544 147 150 155
13.0000 13.0000 12.0000 0.1145 0.9603 0.2544 147 150 155
12.0000 11.0000 20.0000 0.1145 0.9603 0.2544 147 150 155
32.0000 11.0000 11.0000 0.1842 0.8936 0.4093 142 145 150
12.0000 11.0000 20.0000 0.1842 0.8936 0.4093 142 145 150
31.0000 8.0000 18.0000 0.1842 0.8936 0.4093 142 145 150
10.0000 8.0000 -0.0000 -0.2768 0.9227 -0.2684 149 152 157
0.0000 5.0000 -0.0000 -0.2768 0.9227 -0.2684 149 152 157
6.0000 10.0000 11.0000 -0.2768 0.9227 -0.2684 149 152 157
10.0000 8.0000 -0.0000 -0.3424 0.8946 -0.2872 141 144 149
6.0000 10.0000 11.0000 -0.3424 0.8946 -0.2872 141 144 149
13.0000 13.0000 12.0000 -0.3424 0.8946 -0.2872 141 144 149
6.0000 10.0000 11.0000 -0.3529 0.9263 0.1323 143 146 151
0.0000 7.0000 16.0000 -0.3529 0.9263 0.1323 143 146 151
12.0000 11.0000 20.0000 -0.3529 0.9263 0.1323 143 146 151
6.0000 10.0000 11.0000 -0.4088 0.8961 0.1729 153 156 161
12.0000 11.0000 20.0000 -0.4088 0.8961 0.1729 153 156 161
13.0000 13.0000 12.0000 -0.4088 0.8961 0.1729 153 156 161
-21.0000 9.0000 -18.0000 0.1200 0.9926 -0.0182 135 138 143
-10.0000 8.0000 -0.0000 0.1200 0.9926 -0.0182 135 138 143
-4.0000 7.0000 -15.0000 0.1200 0.9926 -0.0182 135 138 143
-21.0000 9.0000 -18.0000 -0.4420 0.8910 -0.1036 143 146 151
-30.0000 5.0000 -14.0000 -0.4420 0.8910 -0.1036 143 146 151
-27.0000 8.0000 -1.0000 -0.4420 0.8910 -0.1036 143 146 151
-21.0000 9.0000 -18.0000 -0.0034 0.9983 0.0575 142 145 150
-27.0000 8.0000 -1.0000 -0.0034 0.9983 0.0575 142 145 150
-10.0000 8.0000 -0.0000 -0.0034 0.9983 0.0575 142 145 150
-4.0000 7.0000 -15.0000 0.2870 0.9566 0.0510 132 135 140
-10.0000 8.0000 -0.0000 0.2870 0.9566 0.0510 132 135 140
0.0000 5.0000 -0.0000 0.2870 0.9566 0.0510 132 135 140
-27.0000 8.0000 -1.0000 0.0223 0.9248 -0.3798 140 143 148
-13.0000 13.0000 12.0000 0.0223 0.9248 -0.3798 140 143 148
-10.0000 8.0000 -0.0000 0.0223 0.9248 -0.3798 140 143 148
-27.0000 8.0000 -1.0000 -0.0863 0.9575 -0.2753 136 139 144
-32.0000 11.0000 11.0000 -0.0863 0.9575 -0.2753 136 139 144
-13.0000 13.0000 12.0000 -0.0863 0.9575 -0.2753 136 139 144
-32.0000 11.0000 11.0000 -0.1145 0.9603 0.2544 139 142 147
-12.0000 11.0000 20.0000 -0.1145 0.9603 0.2544 139 142 147
-13.0000 13.0000 12.0000 -0.1145 0.9603 0.2544 139 142 147
-32.0000 11.0000 11.0000 -0.1842 0.8936 0.4093 141 144 149
-31.0000 8.0000 18.0000 -0.1842 0.8936 0.4093 141 144 149
-12.0000 11.0000 20.0000 -0.1842 0.8936 0.4093 141 144 149
-10.0000 8.0000 -0.0000 0.2768 0.9227 -0.2684 134 137 142
-6.0000 10.0000 11.0000 0.2768 0.9227 -0.2684 134 137 142
0.0000 5.0000 -0.0000 0.2768 0.9227 -0.2684 134 137 142
-10.0000 8.0000 -0.0000 0.3424 0.8946 -0.2872 143 146 151
-13.0000 13.0000 12.0000 0.3424 0.8946 -0.2872 143 146 151
-6.0000 10.0000 11.0000 0.3424 0.8946 -0.2872 143 146 151
-6.0000 10.0000 11.0000 0.3529 0.9263 0.1323 138 141 146
-12.0000 11.0000 20.0000 0.3529 0.9263 0.1323 138 141 146
0.0000 7.0000 16.0000 0.3529 0.9263 0.1323 138 141 146
-6.0000 10.0000 11.0000 0.4088 0.8961 0.1729 140 143 148
-13.0000 13.0000 12.0000 0.4088 0.8961 0.1729 140 143 148
-12.0000 11.0000 20.0000 0.4088 0.8961 0.1729 140 143 148
0.0000 0.0000 -17.0000 0.2037 0.3748 -0.9044 137 140 145
-21.0000 9.0000 -18.0000 0.2037 0.3748 -0.9044 137 140 145
-4.0000 7.0000 -15.0000 0.2037 0.3748 -0.9044 137 140 145
0.0000 0.0000 -17.0000 0.0000 0.2747 -0.9615 145 148 153
-4.0000 7.0000 -15.0000 0.0000 0.2747 -0.9615 145 148 153
4.0000 7.0000 -15.0000 0.0000 0.2747 -0.9615 145 148 153
0.0000 0.0000 -17.0000 -0.2037 0.3748 -0.9044 138 141 146
4.0000 7.0000 -15.0000 -0.2037 0.3748 -0.9044 138 141 146
21.0000 9.0000 -18.0000 -0.2037 0.3748 -0.9044 138 141 146
0.0000 0.0000 -17.0000 -0.1003 -0.3379 -0.9358 140 143 148
-28.0000 0.0000 -14.0000 -0.1003 -0.3379 -0.9358 140 143 148
-21.0000 9.0000 -18.0000 -0.1003 -0.3379 -0.9358 140 143 148
-28.0000 0.0000 -14.0000 -0.3496 -0.1398 -0.9264 134 137 142
-30.0000 5.0000 -14.0000 -0.3496 -0.1398 -0.9264 134 137 142
-21.0000 9.0000 -18.0000 -0.3496 -0.1398 -0.9264 134 137 142
-28.0000 0.0000 -14.0000 -0.8813 -0.3525 -0.3147 141 144 149
-33.0000 0.0000 -0.0000 -0.8813 -0.3525 -0.3147 141 144 149
-30.0000 5.0000 -14.0000 -0.8813 -0.3525 -0.3147 141 144 149
-33.0000 0.0000 -0.0000 -0.7965 0.6030 0.0447 144 147 152
-27.0000 8.0000 -1.0000 -0.7965 0.6030 0.0447 144 147 152
-30.0000 5.0000 -14.0000 -0.7965 0.6030 0.0447 144 147 152
-33.0000 0.0000 -0.0000 -0.7451 0.5043 -0.4365 146 149 154
-32.0000 11.0000 11.0000 -0.7451 0.5043 -0.4365 146 149 154
-27.0000 8.0000 -1.0000 -0.7451 0.5043 -0.4365 146 149 154
-32.0000 11.0000 11.0000 -0.9657 -0.2584 0.0272 140 143 148
-29.0000 0.0000 13.0000 -0.9657 -0.2584 0.0272 140 143 148
-31.0000 8.0000 18.0000 -0.9657 -0.2584 0.0272 140 143 148
-32.0000 11.0000 11.0000 -0.9359 -0.2029 0.2880 133 136 141
-33.0000 0.0000 -0.0000 -0.9359 -0.2029 0.2880 133 136 141
-29.0000 0.0000 13.0000 -0.9359 -0.2029 0.2880 133 136 141
-29.0000 0.0000 13.0000 -0.2116 -0.5555 0.8041 147 150 155
-10.0000 0.0000 18.0000 -0.2116 -0.5555 0.8041 147 150 155
-31.0000 8.0000 18.0000 -0.2116 -0.5555 0.8041 147 150 155
-10.0000 0.0000 18.0000 -0.0728 -0.1912 0.9788 138 141 146
-12.0000 11.0000 20.0000 -0.0728 -0.1912 0.9788 138 141 146
-31.0000 8.0000 18.0000 -0.0728 -0.1912 0.9788 138 141 146
-10.0000 0.0000 18.0000 0.2767 -0.1230 0.9531 140 143 148
0.0000 7.0000 16.0000 0.2767 -0.1230 0.9531 140 143 148
-12.0000 11.0000 20.0000 0.2767 -0.1230 0.9531 140 143 148
-10.0000 0.0000 18.0000 0.0000 0.2747 0.9615 132 135 140
10.0000 0.0000 18.0000 0.0000 0.2747 0.9615 132 135 140
0.0000 7.0000 16.0000 0.0000 0.2747 0.9615 132 135 140
10.0000 0.0000 18.0000 -0.2767 -0.1230 0.9531 136 139 144
12.0000 11.0000 20.0000 -0.2767 -0.1230 0.9531 136 139 144
0.0000 7.0000 16.0000 -0.2767 -0.1230 0.9531 136 139 144
10.0000 0.0000 18.0000 0.0728 -0.1912 0.9788 141 144 149
31.0000 8.0000 18.0000 0.0728 -0.1912 0.9788 141 144 149
12.0000 11.0000 20.0000 0.0728 -0.1912 0.9788 141 144 149
10.0000 0.0000 18.0000 0.2116 -0.5555 0.8041 146 149 154
29.0000 0.0000 13.0000 0.2116 -0.5555 0.8041 146 149 154
31.0000 8.0000 18.0000 0.2116 -0.5555 0.8041 146 149 154
32.0000 11.0000 11.0000 0.9657 -0.2584 0.0272 130 133 138
31.0000 8.0000 18.0000 0.9657 -0.2584 0.0272 130 133 138
29.0000 0.0000 13.0000 0.9657 -0.2584 0.0272 130 133 138
32.0000 11.0000 11.0000 0.9359 -0.2029 0.2880 132 135 140
29.0000 0.0000 13.0000 0.9359 -0.2029 0.2880 132 135 140
33.0000 0.0000 -0.0000 0.9359 -0.2029 0.2880 132 135 140
33.0000 0.0000 -0.0000 0.7451 0.5043 -0.4365 149 152 157
27.0000 8.0000 -1.0000 0.7451 0.5043 -0.4365 149 152 157
32.0000 11.0000 11.0000 0.7451 0.5043 -0.4365 149 152 157
33.0000 0.0000 -0.0000 0.7965 0.6030 0.0447 140 143 148
30.0000 5.0000 -14.0000 0.7965 0.6030 0.0447 140 143 148
27.0000 8.0000 -1.0000 0.7965 0.6030 0.0447 140 143 148
33.0000 0.0000 -0.0000 0.8813 -0.3525 -0.3147 135 138 143
28.0000 0.0000 -14.0000 0.8813 -0.3525 -0.3147 135 138 143
30.0000 5.0000 -14.0000 0.8813 -0.3525 -0.3147 135 138 143
28.0000 0.0000 -14.0000 0.3496 -0.1398 -0.9264 140 143 148
21.0000 9.0000 -18.0000 0.3496 -0.1398 -0.9264 140 143 148
30.0000 5.0000 -14.0000 0.3496 -0.1398 -0.9264 140 143 148
28.0000 0.0000 -14.0000 0.1003 -0.3379 -0.9358 132 135 140
0.0000 0.0000 -17.0000 0.1003 -0.3379 -0.9358 132 135 140
21.0000 9.0000 -18.0000 0.1003 -0.3379 -0.9358 132 135 140
0.0000 0.0000 -0.0000 0.0000 -1.0000 -0.0000 143 146 151
-28.0000 0.0000 -14.0000 0.0000 -1.0000 -0.0000 143 146 151
0.0000 0.0000 -17.0000 0.0000 -1.0000 -0.0000 143 146 151
0.0000 0.0000 -0.0000 0.0000 -1.0000 -0.0000 140 143 148
0.0000 0.0000 -17.0000 0.0000 -1.0000 -0.0000 140 143 148
28.0000 0.0000 -14.0000 0.0000 -1.0000 -0.0000 140 143 148
0.0000 0.0000 -0.0000 0.0000 -1.0000 -0.0000 140 143 148
28.0000 0.0000 -14.0000 0.0000 -1.0000 -0.0000 140 143 148
33.0000 0.0000 -0.0000 0.0000 -1.0000 -0.0000 140 143 148
0.0000 0.0000 -0.0000 0.0000 -1.0000 -0.0000 133 136 141
33.0000 0.0000 -0.0000 0.0000 -1.0000 -0.0000 133 136 141
29.0000 0.0000 13.0000 0.0000 -1.0000 -0.0000 133 136 141
0.0000 0.0000 -0.0000 0.0000 -1.0000 -0.0000 140 143 148
29.0000 0.0000 13.0000 0.0000 -1.0000 -0.0000 140 143 148
10.0000 0.0000 18.0000 0.0000 -1.0000 -0.0000 140 143 148
0.0000 0.0000 -0.0000 0.0000 -1.0000 0.0000 134 137 142
10.0000 0.0000 18.0000 0.0000 -1.0000 0.0000 134 137 142
-10.0000 0.0000 18.0000 0.0000 -1.0000 0.0000 134 137 142
0.0000 0.0000 -0.0000 0.0000 -1.0000 -0.0000 140 143 148
-10.0000 0.0000 18.0000 0.0000 -1.0000 -0.0000 140 143 148
-29.0000 0.0000 13.0000 0.0000 -1.0000 -0.0000 140 143 148
0.0000 0.0000 -0.0000 -0.0000 -1.0000 -0.0000 141 144 149
-29.0000 0.0000 13.0000 -0.0000 -1.0000 -0.0000 141 144 149
-33.0000 0.0000 -0.0000 -0.0000 -1.0000 -0.0000 141 144 149
0.0000 0.0000 -0.0000 0.0000 -1.0000 -0.0000 134 137 142
-33.0000 0.0000 -0.0000 0.0000 -1.0000 -0.0000 134 137 142
-28.0000 0.0000 -14.0000 0.0000 -1.0000 -0.0000 134 137 142
3 0 1 2
3 3 4 5
3 6 7 8
3 9 10 11
3 12 13 14
3 15 16 17
3 18 19 20
3 21 22 23
3 24 25 26
3 27 28 29
3 30 31 32
3 33 34 35
3 36 37 38
3 39 40 41
3 42 43 44
3 45 46 47
3 48 49 50
3 51 52 53
3 54 55 56
3 57 58 59
3 60 61 62
3 63 64 65
3 66 67 68
3 69 70 71
3 72 73 74
3 75 76 77
3 78 79 80
3 81 82 83
3 84 85 86
3 87 88 89
3 90 91 92
3 93 94 95
3 96 97 98
3 99 100 101
3 102 103 104
3 105 106 107
3 108 109 110
3 111 112 113
3 114 115 116
3 117 118 119
3 120 121 122
3 123 124 125
3 126 127 128
3 129 130 131
3 132 133 134
3 135 136 137
3 138 139 140
3 141 142 143
3 144 145 146
3 147 148 149
3 150 151 152
3 153 154 155
3 156 157 158
3 159 160 161
3 162 163 164
3 165 166 167
3 168 169 170
3 171 172 173
3 174 175 176
3 177 178 179
